<svg id="Layer_1" data-name="Layer 1" xmlns="http://www.w3.org/2000/svg" viewBox="0 0 550 247"><defs><style>.cls-1{fill:#7a82bf;}.cls-2{fill:#e0e0e0;}.cls-3{fill:#ebebeb;}.cls-4{fill:#f5f5f5;}.cls-5{fill:#e7515b;}.cls-6{opacity:0.8;}.cls-7{fill:#fff;}.cls-8{opacity:0.3;}.cls-9{fill:#fbbd9d;}.cls-10{fill:#ec996f;}.cls-11{opacity:0.6;}.cls-12{fill:#263238;}.cls-13{fill:#455b64;}.cls-14{fill:#252568;}</style></defs><title>tek</title><rect class="cls-1" width="550" height="247"/><path class="cls-2" d="M231.87,190.49a43.72,43.72,0,0,1-.13-4.73,43.83,43.83,0,0,1,.13-4.74,43.83,43.83,0,0,1,.13,4.74A43.72,43.72,0,0,1,231.87,190.49Z"/><path class="cls-2" d="M236.76,185.75a42.1,42.1,0,0,1-4.89.14,42.1,42.1,0,0,1-4.89-.14,46.69,46.69,0,0,1,4.89-.13A46.69,46.69,0,0,1,236.76,185.75Z"/><path class="cls-2" d="M72.91,192a8.08,8.08,0,0,0-3.21-1.63,17.24,17.24,0,0,1-7.9-26.43l-.17-.88c-.39-4.13-5.37-7.08-9.17-5.45s-5.1,7.27-2.38,10.4c-4.47.37-7.42,5.46-6.79,9.89s3.88,8.08,7.49,10.73a35.53,35.53,0,0,0,20.59,6.8,2.89,2.89,0,0,0,1.46-.27C73.88,194.55,73.74,192.88,72.91,192Z"/><path class="cls-2" d="M197.29,174a5.39,5.39,0,0,0,.13-5.57,4.21,4.21,0,0,0-5.1-1.67,3.74,3.74,0,0,0-6.34-3.95c-1.19,1.83-.56,4.3.46,6.23s2.42,3.75,2.75,5.91a8.59,8.59,0,0,1-1.82,6.27,25.2,25.2,0,0,1-4.83,4.62l-.33.32a12,12,0,0,0,9.6-.82c1.64-.91,3.16-2.41,3.27-4.28.06-1.05-.33-2.09-.17-3.13C195.14,176.36,196.48,175.28,197.29,174Z"/><path class="cls-2" d="M107.33,242.35a6.07,6.07,0,0,1-4.21-2.25c-.62-.85-.91-1.89-1.44-2.79a2.85,2.85,0,0,0-2.5-1.62c-1.62.16-2.71,2.39-4.29,2a2.31,2.31,0,0,1-1.4-2.33,26,26,0,0,0,.16-2.92c-.35-2.72-3.84-4.06-6.45-3.21s-6.57,4-8.27,6.15c1.79,3,5.46,4.13,8.82,5q8.48,2.12,17.09,3.6a12.7,12.7,0,0,0,4.07.24,4.41,4.41,0,0,0,3.31-2.15A17.87,17.87,0,0,1,107.33,242.35Z"/><path class="cls-2" d="M172.1,221.37c-.42-2.33-2.74-4.38-5-3.84,1.91-1.57,1.92-4.74.41-6.69a8,8,0,0,0-6.6-2.74,21.38,21.38,0,0,0-7.14,1.87c1.13-1.44-.52-3.67-2.34-3.79s-3.44,1-4.91,2.11-3.18,2.16-5,1.88l1.69.67a31.21,31.21,0,0,1,11.6,3.67c3.5,2.11,6.37,5.54,7,9.58s-1.52,8.56-5.35,10A16.24,16.24,0,0,0,170,227.92,8.6,8.6,0,0,0,172.1,221.37Z"/><path class="cls-2" d="M39.48,161.05a34.79,34.79,0,0,1-.11-3.9,34.68,34.68,0,0,1,.11-3.89,36.33,36.33,0,0,1,.1,3.89A36.45,36.45,0,0,1,39.48,161.05Z"/><path class="cls-2" d="M43.5,157.15a37.06,37.06,0,0,1-4,.11,37.17,37.17,0,0,1-4-.11,37.17,37.17,0,0,1,4-.11A37.06,37.06,0,0,1,43.5,157.15Z"/><path class="cls-2" d="M194.87,201.1a69,69,0,0,1,0-7.79,69,69,0,0,1,0,7.79Z"/><path class="cls-2" d="M198.9,197.2a37.17,37.17,0,0,1-4,.11,37.32,37.32,0,0,1-4-.11,37.32,37.32,0,0,1,4-.11A37.17,37.17,0,0,1,198.9,197.2Z"/><path class="cls-2" d="M171.23,67.39a36.6,36.6,0,0,1-.1-3.9,36.6,36.6,0,0,1,.1-3.9,34.94,34.94,0,0,1,.11,3.9A34.94,34.94,0,0,1,171.23,67.39Z"/><path class="cls-2" d="M175.26,63.49a37.17,37.17,0,0,1-4,.11,37.06,37.06,0,0,1-4-.11,37.06,37.06,0,0,1,4-.11A37.17,37.17,0,0,1,175.26,63.49Z"/><circle class="cls-2" cx="43.96" cy="124.45" r="2.38"/><path class="cls-2" d="M139,225.84a2.38,2.38,0,1,1-2.38-2.38A2.38,2.38,0,0,1,139,225.84Z"/><path class="cls-2" d="M161.12,180.85a2.39,2.39,0,1,1-2.39-2.38A2.39,2.39,0,0,1,161.12,180.85Z"/><path class="cls-2" d="M90.38,62.29A2.39,2.39,0,1,1,88,59.91,2.39,2.39,0,0,1,90.38,62.29Z"/><circle class="cls-2" cx="100.46" cy="203.14" r="1.19"/><path class="cls-2" d="M72.93,197.2A1.19,1.19,0,1,1,71.74,196,1.19,1.19,0,0,1,72.93,197.2Z"/><path class="cls-2" d="M102.28,64.67a1.19,1.19,0,1,1-1.19-1.19A1.19,1.19,0,0,1,102.28,64.67Z"/><path class="cls-2" d="M154.72,129.08a1.19,1.19,0,1,1-1.19-1.19A1.19,1.19,0,0,1,154.72,129.08Z"/><path class="cls-3" d="M40.39,61.13s-2.65,1.37,1.07,6.93a77.79,77.79,0,0,0,6.14,8.23s.7,1.31-.43,1.66-3.72.24-4.07,1.72.87,2.78,3.17,3.74,7.27,3.24,7.72,3.45.93.79.2,1.15-6.38,1.64-5.62,4.28,7.62,4.26,8.36,4.45,1,.48.94.87-1.95.65-3.54,1.08-3.36,1.2-2.79,2.69,4.84,4.26,14.4,4.06l4.42-.37,2-4C76,92.23,75,87.24,73.79,86.17s-2.55.29-3.52,1.62-1.92,3-2.3,2.91-.56-.43-.47-1.2,1.1-7.73-1.09-9.41-5.43,3.12-6,3.67-1-.12-1-.6-.34-6-.39-8.45-.77-4.09-2.33-4.32-2.35,2.24-3.08,3.16-1.71-.2-1.71-.2a76.85,76.85,0,0,0-5.42-8.73c-3.81-5.48-6.1-3.45-6.1-3.45"/><path class="cls-2" d="M70.71,106.07c-2.79-4-7.62-11.3-11.8-17.51S51,76.73,48.18,72.68c-1.38-2-2.5-3.66-3.28-4.8L44,66.57l-.23-.34a.64.64,0,0,1-.07-.12l.09.11.24.34L45,67.85c.79,1.12,1.92,2.75,3.31,4.77,2.79,4,6.59,9.65,10.77,15.86S68,102,70.79,106"/><path class="cls-2" d="M46.72,80A1.39,1.39,0,0,1,47,80l.85.19c.72.17,1.71.43,2.79.74l2.76.8.84.23.31.1a1.09,1.09,0,0,1-.32,0l-.85-.2c-.72-.18-1.7-.45-2.78-.76l-2.77-.78L47,80.06A2,2,0,0,1,46.72,80Z"/><path class="cls-2" d="M54.86,81.76s.41-2.07,1-4.59S57,72.6,57,72.61s-.41,2.06-1,4.59S54.89,81.76,54.86,81.76Z"/><path class="cls-2" d="M60.84,91.59a3.31,3.31,0,0,1,.15-.3l.44-.77c.37-.66.87-1.57,1.39-2.59s1-2,1.28-2.64l.37-.81a2.23,2.23,0,0,1,.15-.29,1.1,1.1,0,0,1-.1.31c-.07.2-.18.48-.33.83C63.9,86,63.47,87,62.94,88s-1,1.93-1.43,2.58c-.19.32-.36.58-.47.75A1.57,1.57,0,0,1,60.84,91.59Z"/><path class="cls-2" d="M53.13,91.58a1.25,1.25,0,0,1,.3,0l.82,0L57,91.46h3.54l.3,0a1.16,1.16,0,0,1-.3,0l-.82,0L57,91.6c-1.06,0-2,0-2.71,0h-.83A1,1,0,0,1,53.13,91.58Z"/><path class="cls-2" d="M57.31,100.93a2.55,2.55,0,0,1,.39,0l1,0,3.48-.1c1.36,0,2.6,0,3.49,0h1a1.73,1.73,0,0,1,.39,0,2.06,2.06,0,0,1-.39,0l-1,0-3.48.09-3.48.06H57.7Z"/><path class="cls-2" d="M66.92,100.66a2.42,2.42,0,0,1,.18-.38l.52-1c.44-.85,1-2,1.66-3.34s1.17-2.52,1.55-3.39l.45-1a2.91,2.91,0,0,1,.18-.37,2.71,2.71,0,0,1-.13.39c-.09.25-.23.61-.41,1.06-.36.88-.89,2.09-1.51,3.41s-1.25,2.48-1.71,3.32l-.55,1A2.58,2.58,0,0,1,66.92,100.66Z"/><path class="cls-4" d="M184,140.82c-4.71-4.12-5.16-10.85-4.32-16.78a6.54,6.54,0,0,1,.71-2.86,2,2,0,0,1,2.58-.79c.7.43.93,1.32,1.26,2.08a5.84,5.84,0,0,0,2.09,2.47,2.21,2.21,0,0,0,2,.4c.91-.38,1.13-1.55,1.23-2.54q.28-2.76.56-5.52a9.22,9.22,0,0,1,.62-2.9,3.09,3.09,0,0,1,2.14-1.86,1.87,1.87,0,0,1,2.17,1.49,8.52,8.52,0,0,1-.11,1.23,1.06,1.06,0,0,0,.51,1.05,1.21,1.21,0,0,0,1.13-.34,13.21,13.21,0,0,0,2.74-3.3,18.24,18.24,0,0,1,2.59-3.44,5.35,5.35,0,0,1,3.84-1.63,3.21,3.21,0,0,1,3,2.53c.21,1.43-.76,2.75-1.76,3.78a22.19,22.19,0,0,1-5.06,3.88,1.84,1.84,0,0,0-.86.74c-.28.64.27,1.36.9,1.65a11.48,11.48,0,0,0,2.27.5,2.26,2.26,0,0,1,1.77,1.36c.3,1.06-.66,2-1.56,2.63a19.14,19.14,0,0,1-5.94,2.62,6.61,6.61,0,0,0-2.18.78,1.84,1.84,0,0,0-.81,2,1.86,1.86,0,0,0,1.94,1,12.9,12.9,0,0,0,2.25-.6c1.41-.36,3.15-.08,3.9,1.19a3.11,3.11,0,0,1,0,2.79,7.24,7.24,0,0,1-1.76,2.28,19,19,0,0,1-8.71,4.82,13.07,13.07,0,0,1-9.22-.74"/><path class="cls-2" d="M186,137.26a88.85,88.85,0,0,1,4.53-9.15c.45-.79.88-1.57,1.32-2.33s.86-1.53,1.32-2.24a47.41,47.41,0,0,1,2.91-4c1-1.22,2-2.33,2.89-3.37s1.81-2,2.65-2.82a35.43,35.43,0,0,1,4.26-3.63c.54-.39,1-.68,1.25-.87l.33-.21.12-.07-.11.08c-.08.06-.18.14-.32.23s-.7.5-1.23.9a36.55,36.55,0,0,0-4.2,3.66c-.84.83-1.71,1.79-2.63,2.83s-1.9,2.16-2.88,3.38a44.79,44.79,0,0,0-2.89,3.95c-.46.72-.88,1.47-1.32,2.24s-.86,1.54-1.31,2.33a92.94,92.94,0,0,0-4.54,9.12"/><path class="cls-2" d="M193.2,123.53a1.69,1.69,0,0,1-.06-.43c0-.28,0-.68,0-1.18,0-1,0-2.38,0-3.9s0-2.89-.06-3.89c0-.5-.05-.9-.07-1.18a3.5,3.5,0,0,1,0-.43,1.21,1.21,0,0,1,.08.43c.05.27.09.68.13,1.17.08,1,.12,2.38.11,3.9s0,2.86,0,3.9v1.18A3.62,3.62,0,0,1,193.2,123.53Z"/><path class="cls-2" d="M206.14,122.53a4,4,0,0,1-.51,0l-1.39,0c-1.18,0-2.8.06-4.59.2s-3.41.35-4.57.52l-1.38.23a2.07,2.07,0,0,1-.5.06,2.8,2.8,0,0,1,.49-.14c.32-.07.79-.17,1.37-.27a44.16,44.16,0,0,1,4.57-.58c1.8-.14,3.43-.18,4.61-.15.59,0,1.06,0,1.39.07A2.72,2.72,0,0,1,206.14,122.53Z"/><path class="cls-2" d="M186.15,137a.63.63,0,0,1-.07-.17l-.17-.48c-.14-.42-.33-1-.56-1.79-.46-1.52-1-3.64-1.61-6s-1.13-4.46-1.56-6c-.2-.74-.38-1.35-.5-1.81-.06-.2-.1-.36-.14-.49s0-.17,0-.18a1.78,1.78,0,0,1,.07.17c0,.13.1.29.16.48.15.42.34,1,.57,1.79.45,1.52,1,3.64,1.61,6s1.13,4.47,1.55,6c.21.75.38,1.36.51,1.81.05.2.1.36.13.49S186.15,137,186.15,137Z"/><path class="cls-2" d="M203.6,133.42s-.06,0-.18.05l-.51.11-1.86.39c-1.58.33-3.76.82-6.16,1.35s-4.58,1-6.17,1.29c-.79.15-1.43.27-1.88.34l-.51.07c-.12,0-.18,0-.18,0l.17,0,.51-.11,1.87-.39c1.58-.33,3.75-.82,6.15-1.35s4.59-1,6.17-1.29l1.88-.34.52-.07Z"/><path class="cls-2" d="M147.69,70.14c.76-4.36,2.84-10.73,5.33-14.38s6.32-6.57,10.7-7.17S172.94,50,174.91,54c1.06,2.12,1.25,4.57,2,6.81s2.47,4.48,4.83,4.66c2.09.16,4.11-1.35,6.17-.95,2.68.53,3.72,3.83,3.73,6.56S191.29,76.84,193,79c1.37,1.76,3.73,2.37,5.62,3.55,4.11,2.56,5.86,7.85,5.45,12.66s-2.64,9.28-5,13.51a106.23,106.23,0,0,0-8-20c-1.91-3.64-5.38-6.75-8.45-9.48-4.73-4.19-15.09-6.19-21.36-7s-7.37-.94-13.58-2.1"/><path class="cls-5" d="M105.9,75.27c-15.51,1.13-32.45,3.18-44.86,8L65,109.75s24.06-8.61,43.64-8Z"/><g class="cls-6"><path class="cls-7" d="M105.9,75.27c-15.51,1.13-32.45,3.18-44.86,8L65,109.75s24.06-8.61,43.64-8Z"/></g><path class="cls-5" d="M104.78,98.24l-.15,0-.44.07-1.69.21c-.74.08-1.64.19-2.68.34s-2.23.3-3.54.52c-5.23.81-12.43,2.14-20.25,4.17-2.72.7-5.35,1.42-7.74,2.18l-.12,0,0-.12c-.84-6.08-1.65-11.33-2.27-15-.32-1.85-.57-3.32-.75-4.35l-.2-1.17-.05-.3c0-.07,0-.1,0-.1a.65.65,0,0,1,0,.1l.07.3.24,1.15c.2,1,.48,2.49.81,4.35.66,3.71,1.5,9,2.35,15l-.14-.08c2.41-.76,5-1.49,7.75-2.19a196.33,196.33,0,0,1,20.29-4.11c1.31-.21,2.5-.35,3.54-.49s2-.23,2.69-.31l1.69-.17.45,0Z"/><path class="cls-5" d="M105.3,91.79s-.06-.19-.18-.53a5.41,5.41,0,0,0-.79-1.37,7,7,0,0,0-1.89-1.65,6.06,6.06,0,0,0-.67-.36,5.52,5.52,0,0,0-.75-.27,4.13,4.13,0,0,0-1.73-.17,3.68,3.68,0,0,0-1.76.69,6.07,6.07,0,0,0-1.4,1.53,22.77,22.77,0,0,0-2,4.21A5.33,5.33,0,0,1,92.7,96a3,3,0,0,1-1.21.58,2.47,2.47,0,0,1-1.37-.16c-1.76-.7-2.55-2.73-4.33-3.35a3.52,3.52,0,0,0-2.65.21,3.48,3.48,0,0,0-1,.81,5.47,5.47,0,0,0-.7,1.13A7.41,7.41,0,0,1,80,97.45a2,2,0,0,1-1.21.55,2.38,2.38,0,0,1-1.26-.27A4.58,4.58,0,0,1,75.82,96a14.94,14.94,0,0,1-.91-2.08A10.34,10.34,0,0,0,74,92.05a3.79,3.79,0,0,0-1.39-1.29,3.57,3.57,0,0,0-3.18-.09,5.43,5.43,0,0,0-2,1.45,3.84,3.84,0,0,0-.75,1.39c-.11.35-.13.54-.14.54a2.58,2.58,0,0,1,.09-.56,3.87,3.87,0,0,1,.74-1.42,5.36,5.36,0,0,1,2-1.51,3.72,3.72,0,0,1,3.3.06A4,4,0,0,1,74.14,92a10,10,0,0,1,.93,1.92A15.64,15.64,0,0,0,76,95.93a4.31,4.31,0,0,0,1.66,1.62,2.08,2.08,0,0,0,1.15.24,1.82,1.82,0,0,0,1.08-.49,7.19,7.19,0,0,0,1.32-2.22,5.56,5.56,0,0,1,.73-1.17A3.6,3.6,0,0,1,83,93.05a3.72,3.72,0,0,1,2.82-.23,5.76,5.76,0,0,1,2.26,1.71,6.28,6.28,0,0,0,2.08,1.65,2.16,2.16,0,0,0,1.25.15,2.52,2.52,0,0,0,1.12-.53,5.09,5.09,0,0,0,1.4-2,23.31,23.31,0,0,1,2-4.23A5.87,5.87,0,0,1,97.43,88a3.79,3.79,0,0,1,1.84-.71,4.17,4.17,0,0,1,1.78.19,6,6,0,0,1,.78.28c.23.13.47.23.68.37a6.92,6.92,0,0,1,1.88,1.71,5.42,5.42,0,0,1,.78,1.4c.06.18.08.32.11.41S105.31,91.79,105.3,91.79Z"/><path class="cls-5" d="M64.2,88.3c0,.06-.19.15-.45.2s-.48,0-.49,0,.19-.14.45-.19S64.19,88.24,64.2,88.3Z"/><path class="cls-5" d="M64.89,93.15s-.13.18-.34.28-.41.13-.43.08.13-.18.34-.28S64.86,93.1,64.89,93.15Z"/><path class="cls-5" d="M65.75,98.44c0,.06-.14.17-.35.24s-.4.09-.42,0,.13-.16.35-.23S65.73,98.39,65.75,98.44Z"/><path class="cls-5" d="M66.78,103.65c0,.06-.16.16-.4.24s-.44.09-.46,0,.16-.17.39-.24S66.76,103.59,66.78,103.65Z"/><path class="cls-5" d="M96,78.64a3,3,0,0,1,.51-.11L98,78.31c1.25-.17,3-.4,5.13-.66l.1,0v.1c.16,1.78.35,3.84.55,6v.2h-.1l-6.94.85h-.09v-.09c-.19-1.82-.36-3.34-.47-4.43l-.12-1.23a2.22,2.22,0,0,1,0-.42,2.82,2.82,0,0,1,.08.45l.17,1.23c.13,1.08.32,2.58.55,4.38l-.1-.08,6.93-.89-.09.12v-.09c-.2-2.18-.38-4.23-.53-6l.1.09Z"/><path class="cls-5" d="M102.46,79.7c0,.06-1.19.06-2.65.22s-2.62.4-2.63.34a9.21,9.21,0,0,1,2.61-.56A9,9,0,0,1,102.46,79.7Z"/><path class="cls-5" d="M102.54,81.25a23.8,23.8,0,0,1-2.48.24c-1.36.13-2.46.3-2.47.24a10.1,10.1,0,0,1,2.45-.45A10,10,0,0,1,102.54,81.25Z"/><path class="cls-5" d="M100.88,82.61a4.94,4.94,0,0,1-1.41.29A4.76,4.76,0,0,1,98,83a9.35,9.35,0,0,1,2.85-.36Z"/><path class="cls-5" d="M181.49,83.08c-15.18-4.63-28-8.58-45.2-8.47l-2.62,27c17.86,1.58,23.83,2.75,40.33,8.73Z"/><g class="cls-6"><path class="cls-7" d="M181.49,83.08c-15.18-4.63-28-8.58-45.2-8.47l-2.62,27c17.86,1.58,23.83,2.75,40.33,8.73Z"/></g><path class="cls-5" d="M147.11,87.73l.67-5.74a6.73,6.73,0,0,0-4.68,1.3A7,7,0,0,0,140.22,89a8.24,8.24,0,0,0,0,.85v0h0l6.7-.76Z"/><path class="cls-5" d="M154,86.79a6.48,6.48,0,0,0-4.77-4.55l-.21,0-.13,0a2.63,2.63,0,0,0-.39-.06h0l-.67,5.74-.16,1.35L154,91.5h0a7.28,7.28,0,0,0,.33-1.47A7.76,7.76,0,0,0,154,86.79Z"/><g class="cls-8"><path d="M154,86.79a6.48,6.48,0,0,0-4.77-4.55l-.21,0-.13,0a2.63,2.63,0,0,0-.39-.06h0l-.67,5.74-.16,1.35L154,91.5h0a7.28,7.28,0,0,0,.33-1.47A7.76,7.76,0,0,0,154,86.79Z"/></g><path class="cls-5" d="M147.21,89.83l-6.7.76a6.65,6.65,0,0,0,13,1.55l-6.32-2.31"/><path class="cls-5" d="M175.62,88.23A3.11,3.11,0,0,1,175,88l-1.59-.69a51.76,51.76,0,0,0-5.39-1.89,48.92,48.92,0,0,0-5.58-1.23c-.72-.12-1.31-.21-1.71-.26a3.37,3.37,0,0,1-.63-.11,5.07,5.07,0,0,1,.64,0c.41,0,1,.09,1.73.18a42.55,42.55,0,0,1,5.61,1.18,41.56,41.56,0,0,1,5.39,2c.67.3,1.21.56,1.57.76A4.08,4.08,0,0,1,175.62,88.23Z"/><path class="cls-5" d="M175.16,91.05a3.11,3.11,0,0,1-.59-.24c-.37-.16-.91-.4-1.59-.68A46.89,46.89,0,0,0,162,87c-.72-.12-1.31-.2-1.71-.26a2.57,2.57,0,0,1-.63-.11,5.07,5.07,0,0,1,.64,0c.41,0,1,.09,1.73.19A40.75,40.75,0,0,1,167.65,88,40,40,0,0,1,173,90c.67.3,1.21.56,1.57.75A4.08,4.08,0,0,1,175.16,91.05Z"/><path class="cls-5" d="M174.7,93.88s-.21-.08-.59-.24-.91-.41-1.59-.69a48.21,48.21,0,0,0-11-3.13c-.72-.12-1.31-.2-1.71-.26a4.2,4.2,0,0,1-.63-.1,2.83,2.83,0,0,1,.64,0c.41,0,1,.09,1.73.19a39.52,39.52,0,0,1,5.61,1.18,38.78,38.78,0,0,1,5.39,2c.67.3,1.21.56,1.57.75A2.67,2.67,0,0,1,174.7,93.88Z"/><path class="cls-5" d="M173.78,96.7a3.72,3.72,0,0,1-.57-.24c-.36-.17-.89-.41-1.54-.69A45.39,45.39,0,0,0,161,92.64l-1.67-.25a5,5,0,0,1-.61-.11,2.66,2.66,0,0,1,.62,0c.4,0,1,.09,1.68.19a38.63,38.63,0,0,1,5.46,1.18,39.12,39.12,0,0,1,5.22,2c.65.3,1.17.56,1.52.75A2.44,2.44,0,0,1,173.78,96.7Z"/><path class="cls-5" d="M171.78,99a3,3,0,0,1-.51-.21l-1.39-.61a38.27,38.27,0,0,0-4.67-1.72,39.09,39.09,0,0,0-4.87-1l-1.5-.2a3.19,3.19,0,0,1-.55-.1,2.4,2.4,0,0,1,.56,0c.35,0,.87.07,1.51.14a32.36,32.36,0,0,1,4.91,1A30.71,30.71,0,0,1,170,98c.58.27,1,.51,1.35.68A2.78,2.78,0,0,1,171.78,99Z"/><path class="cls-5" d="M165,99.27A6.38,6.38,0,0,1,164,99c-.67-.15-1.58-.35-2.6-.52s-2-.31-2.63-.4a7,7,0,0,1-1.09-.19,5.29,5.29,0,0,1,1.11,0c.68.06,1.62.16,2.64.34a25.88,25.88,0,0,1,2.61.59A4.84,4.84,0,0,1,165,99.27Z"/><path class="cls-5" d="M138.93,77.81l.35,0,1,0c.93,0,2.26,0,4,.09a63.11,63.11,0,0,1,13.93,2.49l.08,0,0,.09c-1,6-2.29,13.11-3.62,20.73l-.16.92,0,.12-.12,0a91.67,91.67,0,0,0-9.3-1.92c-3-.46-5.86-.78-8.52-1h-.1v-.1c.73-6.39,1.34-11.75,1.78-15.52.21-1.87.39-3.34.51-4.35.06-.49.1-.88.14-1.14l0-.29a.65.65,0,0,1,0-.1.87.87,0,0,1,0,.11l0,.3-.12,1.16c-.11,1-.27,2.5-.46,4.38-.41,3.75-1,9.1-1.68,15.47l-.09-.11c2.67.17,5.54.49,8.55.94a89.89,89.89,0,0,1,9.32,1.92l-.13.09c.05-.31.1-.61.16-.92,1.34-7.62,2.59-14.75,3.65-20.74l.06.11A64,64,0,0,0,144.28,78c-1.7-.12-3-.15-3.95-.15h-1.4Z"/><polyline class="cls-5" points="122.35 133.06 137.16 136.34 139.42 133.06 139.05 128.84 136.8 126.78 129.05 126.78 121.8 133.3"/><g class="cls-8"><polyline points="122.35 133.06 137.16 136.34 139.42 133.06 139.05 128.84 136.8 126.78 129.05 126.78 121.8 133.3"/></g><path class="cls-9" d="M144.93,102.56l18.69-2.51,2.94-.83s6.74-1.48,7.37-1.71,1,0,1.1.3c.12.43-.29.91-.9,1.15-.22.09-3.63,1.27-3.63,1.27a10.13,10.13,0,0,1,1.15.33,4,4,0,0,1,2,2.56c.39,1.23.39,1.61-.08,1.78a.64.64,0,0,1-.54-.07,1.22,1.22,0,0,1-.56-.7c-.66-2-1.89-2.12-1.89-2.12l-.38.11s1.26.88,1.24,1.95a1.08,1.08,0,0,1-.1.46,1.63,1.63,0,0,1-.27,1.55,1.66,1.66,0,0,1-1.53.58c-.27,0-.56-.21-.6-.48a.91.91,0,0,1,.09-.42,1.42,1.42,0,0,0,.07-.22l-1.12.16s-2.54.21-3.63.42l-17.51,5.27a4.53,4.53,0,0,1-5.67-3.11h0A4.53,4.53,0,0,1,144.93,102.56Z"/><path class="cls-9" d="M164.05,100.52a1,1,0,0,0,.81.75c.38.08.78,0,1.17.08,1.17.16,2.07,1.21,3.24,1.32.17,0,.37,0,.42-.18s-.08-.28-.19-.38l-2.92-2.58"/><path class="cls-10" d="M166.58,99.53a2,2,0,0,1,.35.25c.21.16.51.42.88.73l1.29,1.11.37.32a.79.79,0,0,1,.34.48.34.34,0,0,1-.2.31.87.87,0,0,1-.31,0,2.74,2.74,0,0,1-.57-.11,16.22,16.22,0,0,1-1.87-1,2.81,2.81,0,0,0-.83-.28c-.27,0-.54,0-.78,0a1.37,1.37,0,0,1-1.07-.46.55.55,0,0,1-.13-.41s0,.16.2.36a1.33,1.33,0,0,0,1,.35,7.59,7.59,0,0,1,.8,0,3.09,3.09,0,0,1,.9.27,15.18,15.18,0,0,0,1.85.92,2.33,2.33,0,0,0,.51.11c.16,0,.3,0,.28-.14s-.13-.21-.26-.32l-.37-.33-1.26-1.14-.83-.79A1.52,1.52,0,0,1,166.58,99.53Z"/><path class="cls-10" d="M170.16,102.08a1.73,1.73,0,0,1,.74,0,1.3,1.3,0,0,1,.64.44,3.31,3.31,0,0,1,.46.88,5,5,0,0,0,.43.93,1.56,1.56,0,0,0,.61.59.66.66,0,0,0,.57,0c.12-.07.17-.13.16-.13a1.57,1.57,0,0,0-.18.08.63.63,0,0,1-.51-.05,1.75,1.75,0,0,1-.54-.57,5.64,5.64,0,0,1-.41-.92,3,3,0,0,0-.49-.9,1.28,1.28,0,0,0-.72-.46,1.15,1.15,0,0,0-.57,0A.59.59,0,0,0,170.16,102.08Z"/><path class="cls-10" d="M174.36,98.87a3.71,3.71,0,0,0-.68.23l-1.62.59-1.63.58a4.32,4.32,0,0,0-.68.25,3.18,3.18,0,0,0,.71-.16c.42-.12,1-.3,1.65-.53s1.2-.46,1.61-.64A3.71,3.71,0,0,0,174.36,98.87Z"/><path class="cls-10" d="M169.67,103.12s.05.07.15.18a.64.64,0,0,1,.21.51.36.36,0,0,1-.22.28,1.84,1.84,0,0,1-.45.12.85.85,0,0,0-.51.27.71.71,0,0,0-.08.62.81.81,0,0,0,.42.45,1,1,0,0,0,.56.08,3.37,3.37,0,0,0,.87-.32,2.08,2.08,0,0,0,.5-.37c.09-.12.12-.2.11-.2s0,.06-.15.16a2.54,2.54,0,0,1-.51.32,3.93,3.93,0,0,1-.84.28.79.79,0,0,1-.83-.45.59.59,0,0,1,.06-.49.71.71,0,0,1,.43-.22,1.84,1.84,0,0,0,.47-.15.47.47,0,0,0,.27-.37.67.67,0,0,0-.27-.56A.71.71,0,0,0,169.67,103.12Z"/><path class="cls-10" d="M169.27,105.45a.4.4,0,0,0-.18.09.61.61,0,0,0-.21.52.82.82,0,0,0,.49.67,1.43,1.43,0,0,0,1,0,1.66,1.66,0,0,0,.8-.61,1.56,1.56,0,0,0,.27-.79,1.44,1.44,0,0,0-.06-.55.82.82,0,0,0-.08-.18,2.6,2.6,0,0,1,0,.72,1.52,1.52,0,0,1-.28.72,1.57,1.57,0,0,1-.74.56,1.29,1.29,0,0,1-.91,0,.75.75,0,0,1-.45-.56.59.59,0,0,1,.14-.47C169.21,105.49,169.28,105.47,169.27,105.45Z"/><path class="cls-10" d="M166.16,103.92a.65.65,0,0,0-.12-.33,1.4,1.4,0,0,0-.68-.55v.12a3.55,3.55,0,0,0,.42-.23,3.18,3.18,0,0,0,1.18-1.21,8.76,8.76,0,0,1-1.25,1.09c-.14.09-.28.16-.41.23l-.15.07.15.06a1.39,1.39,0,0,1,.66.47C166.09,103.81,166.14,103.93,166.16,103.92Z"/><path class="cls-10" d="M172,101.92s-.22.19-.25.54.15.59.18.56a5.41,5.41,0,0,1,0-.55C171.89,102.17,172,101.94,172,101.92Z"/><path class="cls-9" d="M84.76,108.43a55.18,55.18,0,0,0-3.22-4.8,23.74,23.74,0,0,0-5.17-1.85c-.37.12-5.61,1-5,1.64s4.26-.06,4.26-.06l.49.25a21.9,21.9,0,0,0-3.82.89c-.61.35-.4,1.1.17,1s3.32-.59,3.49-.48-3,.74-3.32.94-.51,1.08.07,1c.34,0,3.3-.79,3.3-.79a25.84,25.84,0,0,0-2.56,1.11c-.36.34-.08.85.43.74.35-.08,2-.87,2.48-1,0,0,.44.12.84,1,.18.41,1,3,2.57,3a4.83,4.83,0,0,1,2.71,1.1Z"/><path class="cls-10" d="M71.37,103.43a2.31,2.31,0,0,0,1,.26,5.18,5.18,0,0,0,1.08,0c.4,0,.84-.11,1.3-.17l1-.14h-.06a14.76,14.76,0,0,0,2.26.71,13.9,13.9,0,0,0-2.18-.93h-.06l-1,.14-1.28.18a6.09,6.09,0,0,1-1,0C71.75,103.48,71.38,103.39,71.37,103.43Z"/><path class="cls-9" d="M82.71,107.9a1,1,0,0,1-1.22,0c-.37-.22-.66-.57-1-.82-1.07-.75-2.6-.57-3.63-1.37-.14-.11-.28-.3-.21-.46s.28-.17.45-.17l4.31.11"/><path class="cls-10" d="M81.4,105.19a1.36,1.36,0,0,0-.46-.06l-1.27-.07L77.78,105l-.54,0a.88.88,0,0,0-.64.13.37.37,0,0,0-.07.4.69.69,0,0,0,.22.28,3.06,3.06,0,0,0,.54.34,17.31,17.31,0,0,0,2.24.64,3.23,3.23,0,0,1,.88.4c.25.17.46.38.68.55a1.56,1.56,0,0,0,1.21.43c.32-.06.42-.24.41-.24a1.11,1.11,0,0,1-.42.14,1.47,1.47,0,0,1-1.09-.46,8.48,8.48,0,0,0-.67-.59,3.49,3.49,0,0,0-.93-.45,18.1,18.1,0,0,1-2.2-.65,2.35,2.35,0,0,1-.49-.29c-.14-.12-.21-.27-.14-.33a.78.78,0,0,1,.46-.06h.55l1.88,0h1.28A1.52,1.52,0,0,0,81.4,105.19Z"/><path class="cls-5" d="M106,206.41l-1,11-3.29,8.45a1.14,1.14,0,0,0,.72,1.49h0a1.13,1.13,0,0,0,1-.18c1.85-1.41,8.64-6.64,8.67-7.44S114,208.19,114,208.19Z"/><g class="cls-11"><path class="cls-7" d="M102.45,227.32l9.77-8.36,0,.46a1.76,1.76,0,0,1-.52,1.05c-.79.74-3,2.73-8.15,6.68a1.13,1.13,0,0,1-1,.17Z"/></g><g class="cls-11"><path class="cls-7" d="M110.38,215.17a.68.68,0,0,0-.29.86.66.66,0,0,0,.86.3.72.72,0,0,0,.3-.92.69.69,0,0,0-.93-.21"/></g><path class="cls-12" d="M105.5,222.82c-.07,0-.25-.58-.87-1a3.37,3.37,0,0,0-1.23-.38s.14-.1.4-.11a1.82,1.82,0,0,1,1.62,1C105.52,222.65,105.52,222.82,105.5,222.82Z"/><path class="cls-12" d="M104.55,224.2c-.06,0-.37-.36-.92-.58a8.84,8.84,0,0,0-1-.26,1.25,1.25,0,0,1,1.15,0C104.35,223.66,104.61,224.18,104.55,224.2Z"/><path class="cls-12" d="M107.16,221.11a10.05,10.05,0,0,0-1.35-1,13.84,13.84,0,0,0-1.58-.57,2.49,2.49,0,0,1,1.69.35A2.45,2.45,0,0,1,107.16,221.11Z"/><path class="cls-12" d="M107.74,217.8c0,.06-.61-.26-1.39-.38s-1.43,0-1.45-.07a2.79,2.79,0,0,1,2.84.45Z"/><path class="cls-12" d="M108.12,214.58a5.74,5.74,0,0,0-1.45-.43,6,6,0,0,0-1.49.2s.12-.15.39-.26a2.44,2.44,0,0,1,1.12-.18,2.41,2.41,0,0,1,1.08.35C108,214.42,108.14,214.56,108.12,214.58Z"/><path class="cls-12" d="M106.76,213.54a1,1,0,0,1,0-.41,2.69,2.69,0,0,1,.45-1,1.28,1.28,0,0,1,.61-.55.47.47,0,0,1,.5.16.8.8,0,0,1,.12.52,1.6,1.6,0,0,1-1.56,1.3,1.86,1.86,0,0,1-1.7-1.16.68.68,0,0,1,0-.54.45.45,0,0,1,.49-.18,1.6,1.6,0,0,1,.68.46,3,3,0,0,1,.65.93,1.23,1.23,0,0,1,.13.4,5.31,5.31,0,0,0-.9-1.21,1.46,1.46,0,0,0-.6-.38.23.23,0,0,0-.26.09.41.41,0,0,0,0,.36,1.64,1.64,0,0,0,1.48,1,1.38,1.38,0,0,0,1.34-1.09.6.6,0,0,0-.07-.36.24.24,0,0,0-.27-.09,1.1,1.1,0,0,0-.53.45A4.3,4.3,0,0,0,106.76,213.54Z"/><path class="cls-12" d="M116.11,212.84l8.21-65L121.7,132.7l-15.49.82-1.93,78.12a1.2,1.2,0,0,0,1,1.21l9,1.39A1.61,1.61,0,0,0,116.11,212.84Z"/><path class="cls-12" d="M124.09,150,139,164.78,117.53,170l1.53,10.85,29.09-4a9.12,9.12,0,0,0,6.19-3.72h0a9.14,9.14,0,0,0,.14-10.51L131.82,129.4l-10.12,3.3Z"/><path class="cls-13" d="M123.26,146.23a8.72,8.72,0,0,1,.52,1.86,8.5,8.5,0,0,1,.31,1.91,8.72,8.72,0,0,1-.52-1.86A8.5,8.5,0,0,1,123.26,146.23Z"/><path class="cls-13" d="M121.09,171.37l.35-.12,1-.32,4-1.22,14.58-4.39,0,.14-17.93-19.09.19-.06c-.36,3-.73,6.13-1.11,9.32-1.84,15.49-3.58,29.51-4.93,39.64-.66,5.06-1.25,9.16-1.68,12-.24,1.41-.4,2.51-.56,3.25l-.18.84c0,.18-.07.28-.07.28s0-.1,0-.29.09-.48.16-.84c.14-.74.29-1.84.51-3.25.41-2.83,1-6.92,1.62-12,1.31-10.14,3-24.15,4.87-39.64l1.11-9.33,0-.23.16.17,17.9,19.13.09.1-.13,0-14.61,4.32-4,1.17-1,.31Z"/><path class="cls-13" d="M116.25,211.62c-.06,0,1.65-13.81,3.81-30.83s4-30.8,4-30.79-1.65,13.8-3.81,30.82S116.31,211.62,116.25,211.62Z"/><path class="cls-13" d="M121.66,139.35a4.71,4.71,0,0,1,.35,1c.18.63.41,1.51.62,2.49s.38,1.88.47,2.53a4.75,4.75,0,0,1,.11,1.06,6,6,0,0,1-.26-1l-.53-2.51-.56-2.5A6.15,6.15,0,0,1,121.66,139.35Z"/><path class="cls-13" d="M122.62,138.08s.21-.2.61-.07a.72.72,0,0,1,.45.54.77.77,0,0,1-.34.79.75.75,0,0,1-.85-.08.65.65,0,0,1-.2-.68.63.63,0,0,1,.28-.37c.1-.06.16-.06.17,0a.8.8,0,0,0-.3.45.48.48,0,0,0,.17.48.56.56,0,0,0,.62.05.58.58,0,0,0-.06-1A1.06,1.06,0,0,0,122.62,138.08Z"/><path class="cls-13" d="M143.42,167.31c0,.05-.88-.73-2.09-1.42s-2.3-1.06-2.28-1.12a6.74,6.74,0,0,1,2.39.93A6.47,6.47,0,0,1,143.42,167.31Z"/><path class="cls-14" d="M111.14,88.37l-8.58,4.14,3.7,25.8-1.45,11.58a4.53,4.53,0,0,0,1.51,4h0l13.85-.27,9.7-5.33,4.45-.76-1.82-8.81.82-12.5,10.13,5.41a3.58,3.58,0,0,0,2.55.3l18.59-4.81-1-7.16-16.82,1.91L134,90.52l-9.53-2.15-1.7-2.81H113l-.68.51a2.07,2.07,0,0,0-.71,1Z"/><path class="cls-14" d="M102.56,92.51a10.28,10.28,0,0,0-3.86,5c-1,3-3.19,15.35-3.19,15.35l-9.74-6-5.62,5.9,13,11.45a6.6,6.6,0,0,0,7.23,1h0a6.6,6.6,0,0,0,3.68-5.06l1.6-11.67Z"/><polygon class="cls-9" points="131.82 129.4 131.22 128.51 124.81 129.7 123.63 132.43 131.82 129.4"/><path class="cls-14" d="M106.32,133.86c5.73,2.31,11.85,1.46,17.31-1.43,1.64-.87,3.17-2,4.83-2.82a10.24,10.24,0,0,1,5.35-1.37,5.25,5.25,0,0,1,4.48,2.87,3.58,3.58,0,0,1-1.75,4.68l.62.55a5.55,5.55,0,0,0,2.53-7.21c-1-1.95-3-3.11-4.46-4.71-2.18-2.34-2.41-6.88-2.42-10.41"/><path class="cls-12" d="M118.89,93.36a2,2,0,0,1-.42,0,1.65,1.65,0,0,0-1,.47,2.4,2.4,0,0,0-.5,1.64,5.46,5.46,0,0,0,.46,2.19l.16.36-.31-.23a17,17,0,0,1-2.16-1.91,15.72,15.72,0,0,1-3.32-5.09,9.89,9.89,0,0,1-.54-1.77,4.59,4.59,0,0,1-.1-.67,19,19,0,0,0,.78,2.38,16.9,16.9,0,0,0,3.33,5,19,19,0,0,0,2.13,1.89l-.15.13a4.84,4.84,0,0,1-.36-1.18,5.33,5.33,0,0,1-.1-1.11,2.5,2.5,0,0,1,.59-1.72,1.58,1.58,0,0,1,1.1-.44A1.84,1.84,0,0,1,118.89,93.36Z"/><path class="cls-14" d="M119.41,93.36a2.22,2.22,0,0,1,2.25.72c.34.38.53.91,1,1.16a3.07,3.07,0,0,0,2.24.14s.25-1.19.38-1.69a38.35,38.35,0,0,0,1-5.72c-1.35-.65-1-1.51-3.4-1.35a6.25,6.25,0,0,1,.08,3.42"/><path class="cls-12" d="M122.88,90s.09-.32.14-.91a6.93,6.93,0,0,0-.3-2.48l0-.1h.1a4.17,4.17,0,0,1,1.79.16,2.71,2.71,0,0,1,.83.6,3.31,3.31,0,0,0,.84.58l.06,0V88c-.1,1-.23,2.13-.42,3.27-.13.75-.28,1.48-.45,2.17s-.31,1.35-.46,2v0l0,0a1.29,1.29,0,0,1-.72.17,3.71,3.71,0,0,1-.67,0,3.27,3.27,0,0,1-.62-.14,1.23,1.23,0,0,1-.55-.3,5.82,5.82,0,0,1-.65-.88,2.19,2.19,0,0,0-.66-.6,2.22,2.22,0,0,0-1.2-.37,2.62,2.62,0,0,0-.45.06,1,1,0,0,1,.45-.13,2.27,2.27,0,0,1,1.26.34,2.39,2.39,0,0,1,.72.61,5.73,5.73,0,0,0,.64.85,2.15,2.15,0,0,0,1.09.38,4.5,4.5,0,0,0,.64,0,1.27,1.27,0,0,0,.6-.14l0,.06c.14-.63.28-1.31.45-2s.32-1.4.45-2.14c.19-1.14.31-2.25.43-3.26l.06.1a3.3,3.3,0,0,1-.89-.62,2.61,2.61,0,0,0-.76-.56,4.07,4.07,0,0,0-1.71-.18l.07-.1a6.38,6.38,0,0,1,.24,2.54,3.92,3.92,0,0,1-.14.68C122.92,90,122.89,90.05,122.88,90Z"/><path class="cls-12" d="M137.17,129.54s0-.16,0-.48a3,3,0,0,0-.41-1.29,4.31,4.31,0,0,0-1.54-1.48,6.54,6.54,0,0,0-2.75-.76c-1.06-.09-2.24,0-3.5-.12a13.14,13.14,0,0,1-4-.84,8.09,8.09,0,0,1-3.57-2.67,6.16,6.16,0,0,1-1-2.14,8.33,8.33,0,0,1-.23-2.44,40.85,40.85,0,0,1,.67-4.75,34.67,34.67,0,0,0,.42-4.42,36.68,36.68,0,0,0-.55-7.49,37.31,37.31,0,0,0-1.23-4.92c-.18-.57-.34-1-.45-1.31l-.12-.34,0-.12,0,.11.14.33c.12.3.29.73.49,1.3a35.6,35.6,0,0,1,1.3,4.92,36,36,0,0,1,.6,7.53,35.08,35.08,0,0,1-.41,4.44,44.51,44.51,0,0,0-.66,4.73,6.73,6.73,0,0,0,1.21,4.45,8,8,0,0,0,3.47,2.6,13.1,13.1,0,0,0,3.9.85c1.25.09,2.43,0,3.51.15a6.63,6.63,0,0,1,2.79.8,4.39,4.39,0,0,1,1.55,1.55,2.89,2.89,0,0,1,.38,1.33,1.73,1.73,0,0,1,0,.36C137.18,129.5,137.18,129.54,137.17,129.54Z"/><path class="cls-12" d="M130.91,121.91a3.26,3.26,0,0,1-.48.5c-.16.16-.36.35-.6.55s-.51.45-.83.69a22.39,22.39,0,0,1-2.32,1.6,24.39,24.39,0,0,1-3.07,1.56,25.16,25.16,0,0,1-3.27,1.1,23.21,23.21,0,0,1-2.76.52c-.4.07-.76.08-1.08.11s-.59,0-.81.05a4.76,4.76,0,0,1-.7,0,4.05,4.05,0,0,1,.69-.08c.23,0,.5,0,.81-.08s.67-.07,1.07-.14a24,24,0,0,0,2.73-.57,24.82,24.82,0,0,0,3.24-1.1,27.08,27.08,0,0,0,3-1.53,25.82,25.82,0,0,0,2.32-1.55c.33-.23.6-.47.85-.66s.46-.37.62-.52A5.17,5.17,0,0,1,130.91,121.91Z"/><path class="cls-12" d="M106.14,117.73l0-.2L106,117c-.09-.53-.21-1.23-.35-2.09-.3-1.77-.71-4.22-1.21-6.91s-1-5.12-1.36-6.87L102.64,99l-.11-.57c0-.13,0-.2,0-.2s0,.06.07.19l.14.56c.13.48.3,1.19.5,2.06.4,1.75.92,4.18,1.42,6.87s.9,5.15,1.15,6.92c.13.89.23,1.61.28,2.11l.07.58C106.15,117.66,106.15,117.73,106.14,117.73Z"/><path class="cls-12" d="M99.47,118.81c-.07,0-.63-1.5-1.69-3.15a24.7,24.7,0,0,0-2.27-2.76,3.75,3.75,0,0,1,.82.67,11.57,11.57,0,0,1,1.63,2,13.87,13.87,0,0,1,1.18,2.26A4.9,4.9,0,0,1,99.47,118.81Z"/><path class="cls-12" d="M100.19,117a6.48,6.48,0,0,1-.47-.82,6.58,6.58,0,0,0-1.45-1.69,9.37,9.37,0,0,0-1.91-1.17,5.17,5.17,0,0,1-.85-.41,3.56,3.56,0,0,1,.91.27,7.78,7.78,0,0,1,2,1.14,5.65,5.65,0,0,1,1.44,1.79A2.81,2.81,0,0,1,100.19,117Z"/><g class="cls-8"><path d="M116.12,128.81c-.39.17-.36.81,0,1.09a1.81,1.81,0,0,0,1.24.26,16.11,16.11,0,0,0,12.39-7c-3.78,3.11-8.74,4.28-13.51,5.36"/></g><g class="cls-8"><path d="M103.5,102.86a42.48,42.48,0,0,1-1,13.67,11.33,11.33,0,0,0-.47,2.88,3.81,3.81,0,0,0,1.39,2.7,19.26,19.26,0,0,0,1-4.86c.27-1.56.71-5.18.71-5.23a20.49,20.49,0,0,0-1.91-8.75"/></g><g class="cls-8"><path d="M111.39,89.12A16.67,16.67,0,0,0,116.12,98a4.92,4.92,0,0,0,3.37,1.69,7.91,7.91,0,0,1-.65-4.93,20.21,20.21,0,0,0,3.45,1.87,6.79,6.79,0,0,0,3.85.44c.26-2.32.53-4.63.8-7a1.29,1.29,0,0,0-.07-.78.44.44,0,0,0-.67-.15.74.74,0,0,0-.13.3c-.47,2-.73,3.85-1.2,5.88-.34.34-1.38.2-2.07-.06s-.82-.71-1.22-1.21-.33-.41-.91-.66c-1.08-.46-3.15-.09-3.6.87a4.71,4.71,0,0,0,.19,3.2,14.45,14.45,0,0,1-6.1-8.47"/></g><path class="cls-9" d="M112.54,72.62V87.06a3.52,3.52,0,0,0,.83,2.26h0a10.51,10.51,0,0,0,2.9,2.4l2.91,1.64,2.41-2.15a3.47,3.47,0,0,0,1.16-2.48c0-1,0-2.11,0-2.11s4.08-.29,4.46-4.32c.18-1.89.24-5.77.25-9.35a7.83,7.83,0,0,0-7.19-7.82h-.11A7.49,7.49,0,0,0,112.54,72.62Z"/><path class="cls-10" d="M122.8,86.62a9.76,9.76,0,0,1-5.12-2s1,3,5.1,3Z"/><path class="cls-12" d="M126.32,75.54a.59.59,0,0,1-.61.53.56.56,0,0,1-.55-.57.59.59,0,0,1,.61-.53A.56.56,0,0,1,126.32,75.54Z"/><path class="cls-12" d="M126.48,74.57c-.08.07-.49-.29-1.11-.34s-1.09.23-1.16.14.06-.16.27-.29a1.5,1.5,0,0,1,.93-.2,1.53,1.53,0,0,1,.88.36C126.46,74.4,126.52,74.54,126.48,74.57Z"/><path class="cls-12" d="M120.48,75.24a.59.59,0,0,1-.61.54.57.57,0,0,1-.55-.57.59.59,0,0,1,.61-.54A.57.57,0,0,1,120.48,75.24Z"/><path class="cls-12" d="M120.38,74.18c-.07.07-.48-.29-1.1-.33s-1.1.22-1.16.14,0-.17.26-.3a1.6,1.6,0,0,1,.94-.2,1.49,1.49,0,0,1,.87.36C120.37,74,120.42,74.15,120.38,74.18Z"/><path class="cls-12" d="M122.25,79a4.51,4.51,0,0,1,1-.1c.16,0,.31,0,.35-.12a.81.81,0,0,0-.07-.48c-.11-.4-.24-.81-.37-1.24a22.13,22.13,0,0,1-.79-3.24,18.86,18.86,0,0,1,1,3.17l.35,1.24a.9.9,0,0,1,0,.63.37.37,0,0,1-.28.21,1.32,1.32,0,0,1-.27,0A3.69,3.69,0,0,1,122.25,79Z"/><path class="cls-12" d="M120.39,79.24c.1,0,0,.67.59,1.2s1.25.51,1.25.6-.17.12-.47.1a1.63,1.63,0,0,1-1.05-.46,1.46,1.46,0,0,1-.45-1C120.26,79.39,120.35,79.23,120.39,79.24Z"/><path class="cls-12" d="M120.74,71.77c-.07.16-.68,0-1.42.06s-1.33.18-1.42,0,.08-.23.33-.37a2.48,2.48,0,0,1,2.17-.06C120.65,71.55,120.78,71.69,120.74,71.77Z"/><path class="cls-12" d="M126.4,72.76c-.12.13-.53-.05-1.05-.1s-.95,0-1-.14,0-.21.24-.32a1.43,1.43,0,0,1,.87-.16,1.45,1.45,0,0,1,.82.35C126.41,72.55,126.45,72.7,126.4,72.76Z"/><path class="cls-12" d="M117.28,68.57h0a3.21,3.21,0,0,0-1.35,2l0,.09c-.25,1.13-.32,2.3-.58,3.44s-.21,2-1.35,2.25a1.51,1.51,0,0,1-1.58-.64,1,1,0,0,1-.1-.54c0-2.79-.55-3.88-.3-6.78a2.41,2.41,0,0,1,1.18-1.9c.64-.39,1.42-.78,2.07-.4a11.19,11.19,0,0,1,1.9,2.29"/><path class="cls-9" d="M113.75,74.56c-.06,0-2.7-1-2.84,1.71a2.08,2.08,0,0,0,2.67,2.26C113.59,78.45,113.75,74.56,113.75,74.56Z"/><path class="cls-10" d="M112.79,77.44s-.05,0-.13.06a.5.5,0,0,1-.36,0,1.19,1.19,0,0,1-.5-1.09,1.67,1.67,0,0,1,.17-.69.56.56,0,0,1,.38-.35.26.26,0,0,1,.28.15c0,.08,0,.13,0,.14a.17.17,0,0,0,0-.16.32.32,0,0,0-.36-.26.67.67,0,0,0-.53.4,1.56,1.56,0,0,0-.2.76,1.26,1.26,0,0,0,.64,1.23.51.51,0,0,0,.44-.05C112.78,77.5,112.8,77.44,112.79,77.44Z"/><path class="cls-12" d="M115.1,66.46c-.59-1.15,1.4-2.58,2.8-2.9s3.13.5,4.44,1.06a7.45,7.45,0,0,0,2.55.85,5.79,5.79,0,0,0,1.79-.3,4.54,4.54,0,0,1,1.79-.2,1.65,1.65,0,0,1,1.37,1,1,1,0,0,1-.81,1.35,1.36,1.36,0,1,1,.15,2.54c.42-.27,1,.27.89.76a1.43,1.43,0,0,1-1,1,5.16,5.16,0,0,1-3.67-.36c-1.16-.5-2.21-1.21-3.35-1.74s-3-1.46-4.27-1.14c-.9.23-1.59,1.23-2.06,1a1.68,1.68,0,0,1-.77-1.31,4.66,4.66,0,0,1,.18-1.57"/><path class="cls-13" d="M129.37,67.31s-.16.19-.48.49a3.87,3.87,0,0,1-1.61.86,3.49,3.49,0,0,1-2.62-.33,11.81,11.81,0,0,1-2.49-2.27,5.81,5.81,0,0,0-3-1.74,3.21,3.21,0,0,0-2.71.69,2.43,2.43,0,0,0-.77,1.73,1.57,1.57,0,0,0,.08.52c0,.11.06.17.07.16a4.52,4.52,0,0,1,0-.67,2.35,2.35,0,0,1,.79-1.59,3,3,0,0,1,2.54-.59A5.56,5.56,0,0,1,122,66.26a11.66,11.66,0,0,0,2.57,2.29,3.59,3.59,0,0,0,2.79.29,3.66,3.66,0,0,0,1.63-1,2.46,2.46,0,0,0,.32-.41C129.35,67.37,129.38,67.32,129.37,67.31Z"/><path class="cls-13" d="M113.06,74.38s.12-.07.25-.28a1.89,1.89,0,0,0,.22-1c0-.9-.7-1.91-.69-3.15a2.7,2.7,0,0,1,.44-1.62,2.15,2.15,0,0,1,1.09-.8,1.77,1.77,0,0,1,.93,0,2.22,2.22,0,0,0,.35.09s-.09-.11-.32-.2a1.73,1.73,0,0,0-1,0,2.19,2.19,0,0,0-1.25.84,3,3,0,0,0-.51,1.77,5,5,0,0,0,.39,1.78,5.39,5.39,0,0,1,.38,1.37A2.14,2.14,0,0,1,113.06,74.38Z"/><path class="cls-5" d="M124.42,154.16l-.62,0-1.83,0c-1.6,0-4,.09-7,.24s-6.76.42-11.07.92c-2.15.25-4.44.55-6.87.95s-5,.87-7.63,1.48S84,159.11,81.13,160a55.52,55.52,0,0,0-8.55,3.52,27.87,27.87,0,0,0-4.1,2.62,13.14,13.14,0,0,0-3.36,3.68c-.1.18-.21.36-.31.55l-.24.59-.11.3a1.57,1.57,0,0,0-.08.31l-.15.62a6.27,6.27,0,0,0,.12,2.55,9.31,9.31,0,0,0,2.82,4.39,30.85,30.85,0,0,0,9.43,5.61,77.21,77.21,0,0,0,11,3.47,145,145,0,0,0,24,3.54,191,191,0,0,0,24.26.09A151.86,151.86,0,0,0,158.24,189a96.71,96.71,0,0,0,10.16-2.74,50.64,50.64,0,0,0,9.08-4,24.6,24.6,0,0,0,3.82-2.72,10.9,10.9,0,0,0,2.77-3.53l.21-.51a2.47,2.47,0,0,0,.18-.52l.13-.53c0-.09,0-.17,0-.26l0-.27a5.34,5.34,0,0,0-.16-2.11,7.27,7.27,0,0,0-.89-1.89,11.06,11.06,0,0,0-1.29-1.59,19,19,0,0,0-3.06-2.52,32.37,32.37,0,0,0-3.25-1.94,57,57,0,0,0-6.33-2.82,96.76,96.76,0,0,0-10.6-3.27c-3-.74-5.28-1.2-6.86-1.5-.79-.16-1.39-.26-1.8-.34l-.61-.12s.84.13,2.42.41,3.9.74,6.87,1.47a94,94,0,0,1,10.63,3.24,56.84,56.84,0,0,1,6.35,2.81,33.53,33.53,0,0,1,3.26,1.93,20.33,20.33,0,0,1,3.09,2.54,12.85,12.85,0,0,1,1.32,1.61,7.4,7.4,0,0,1,.9,1.93,5.51,5.51,0,0,1,.17,2.18l0,.27a2.61,2.61,0,0,1-.06.27l-.13.55a3.68,3.68,0,0,1-.18.53l-.21.52a11.28,11.28,0,0,1-2.81,3.59,25,25,0,0,1-3.85,2.75,51.3,51.3,0,0,1-9.11,4,94.71,94.71,0,0,1-10.18,2.75,150.94,150.94,0,0,1-22.43,2.94,189.74,189.74,0,0,1-24.3-.09,144.44,144.44,0,0,1-24-3.54,76.39,76.39,0,0,1-11-3.49A30.72,30.72,0,0,1,67,179.31a9.55,9.55,0,0,1-2.87-4.48A6.32,6.32,0,0,1,64,172.2l.15-.64c0-.11,0-.22.08-.32l.12-.31.25-.6.31-.57A13.36,13.36,0,0,1,68.36,166a28.07,28.07,0,0,1,4.14-2.64,54.84,54.84,0,0,1,8.58-3.52c2.84-.92,5.61-1.64,8.27-2.24s5.21-1.08,7.64-1.47,4.73-.68,6.88-.94c4.31-.48,8-.73,11.08-.88s5.42-.18,7-.19h2.45Z"/><path class="cls-5" d="M90.24,122.47l-.71.14c-.46.1-1.16.22-2.06.42-1.82.38-4.49,1-7.89,1.89a81.42,81.42,0,0,0-12.07,4.26c-1.14.53-2.3,1.1-3.46,1.76a30.56,30.56,0,0,0-3.46,2.22,19.22,19.22,0,0,0-3.2,2.94,10,10,0,0,0-2.17,4,7.3,7.3,0,0,0,.34,4.69,12.25,12.25,0,0,0,2.9,4,32.54,32.54,0,0,0,9,5.72A99.11,99.11,0,0,0,90,161.18,187.86,187.86,0,0,0,115.94,164a221.77,221.77,0,0,0,28-.5,161.62,161.62,0,0,0,27.63-4.5,82.46,82.46,0,0,0,12.58-4.32,43.51,43.51,0,0,0,5.69-3,22,22,0,0,0,4.79-4,9.12,9.12,0,0,0,2.37-5.49,4.71,4.71,0,0,0,0-.75,4.53,4.53,0,0,0-.07-.74l-.17-.73a4.45,4.45,0,0,0-.24-.7,10.43,10.43,0,0,0-1.43-2.57,19.93,19.93,0,0,0-4.24-3.92,39.84,39.84,0,0,0-4.86-2.83A68.26,68.26,0,0,0,176,126c-3.28-1-6.47-1.84-9.55-2.52a184.72,184.72,0,0,0-29.53-3.77c-3.52-.18-6.25-.19-8.11-.23l-2.1,0-.72,0s.24,0,.72,0l2.11,0c1.85,0,4.58,0,8.1.2a181.37,181.37,0,0,1,29.57,3.7c3.07.68,6.28,1.49,9.56,2.51a69.67,69.67,0,0,1,10,3.9,40.24,40.24,0,0,1,4.88,2.85,19.85,19.85,0,0,1,4.29,4,11,11,0,0,1,1.47,2.61,6.08,6.08,0,0,1,.24.72l.17.74a4.9,4.9,0,0,1,.08.77,4.83,4.83,0,0,1,0,.76,7.87,7.87,0,0,1-.73,3,11.17,11.17,0,0,1-1.69,2.62,21.83,21.83,0,0,1-4.83,4.08,44.53,44.53,0,0,1-5.71,3,82.29,82.29,0,0,1-12.62,4.34A161.93,161.93,0,0,1,144,163.76a222.09,222.09,0,0,1-28,.5A189.8,189.8,0,0,1,90,161.38a99.12,99.12,0,0,1-22.64-6.68,32.71,32.71,0,0,1-9-5.76,12.36,12.36,0,0,1-2.93-4.11,7.47,7.47,0,0,1-.34-4.79,10.09,10.09,0,0,1,2.2-4,19.89,19.89,0,0,1,3.23-3A33.49,33.49,0,0,1,64,130.82c1.17-.66,2.33-1.23,3.47-1.75a81.69,81.69,0,0,1,12.1-4.24c3.4-.91,6.08-1.48,7.9-1.84S90.24,122.47,90.24,122.47Z"/><path class="cls-5" d="M104.9,185.59l-2.09.33c-1.36.22-3.38.57-6,1.13a75.21,75.21,0,0,0-9.21,2.6A42.93,42.93,0,0,0,82.17,192a23.29,23.29,0,0,0-2.78,1.7A14.77,14.77,0,0,0,76.83,196a8.81,8.81,0,0,0-1,1.46,5.81,5.81,0,0,0-.62,1.69c0,.15-.06.3-.07.45l0,.46c0,.31,0,.62.07.93a7.64,7.64,0,0,0,.24.91l.17.44.09.22.12.2a10.26,10.26,0,0,0,2.51,3A20.23,20.23,0,0,0,81.67,208a44.22,44.22,0,0,0,7.89,3.3,80.65,80.65,0,0,0,8.79,2.24,131.86,131.86,0,0,0,19.35,2.32,158.22,158.22,0,0,0,20.92-.37,111.43,111.43,0,0,0,20.61-3.55,51,51,0,0,0,9.29-3.54,22.69,22.69,0,0,0,4-2.61c.32-.23.58-.53.88-.79s.53-.58.8-.86a7.62,7.62,0,0,0,1.19-2,5.3,5.3,0,0,0-.19-4.41,10.49,10.49,0,0,0-2.88-3.36,29.57,29.57,0,0,0-7.47-4.09,65.1,65.1,0,0,0-7.62-2.44c-2.48-.64-4.89-1.14-7.21-1.55a143.72,143.72,0,0,0-22.16-2l-8.16,0s2.9,0,8.16,0a141.82,141.82,0,0,1,22.18,2c2.32.41,4.73.91,7.22,1.55a63.89,63.89,0,0,1,7.63,2.43,29.64,29.64,0,0,1,7.5,4.1,10.78,10.78,0,0,1,2.92,3.4,5.44,5.44,0,0,1,.19,4.5,7.74,7.74,0,0,1-1.21,2c-.27.28-.51.6-.81.87s-.56.56-.88.8a23.27,23.27,0,0,1-4.06,2.62,51.47,51.47,0,0,1-9.31,3.55,111,111,0,0,1-20.63,3.56,158.58,158.58,0,0,1-20.94.37,131.78,131.78,0,0,1-19.37-2.33,83.39,83.39,0,0,1-8.81-2.25,45.09,45.09,0,0,1-7.9-3.31,21.15,21.15,0,0,1-3.39-2.28,10.47,10.47,0,0,1-2.53-3l-.12-.21-.09-.22-.18-.45c-.11-.3-.16-.62-.24-.92s-.07-.64-.07-.95l0-.47c0-.15,0-.3.07-.46a6.14,6.14,0,0,1,.64-1.72,8.76,8.76,0,0,1,1-1.47,14.55,14.55,0,0,1,2.58-2.28A23.49,23.49,0,0,1,82.13,192a42.73,42.73,0,0,1,5.49-2.37A75.39,75.39,0,0,1,96.85,187c2.58-.56,4.59-.89,6-1.1S104.9,185.59,104.9,185.59Z"/><path class="cls-5" d="M159.52,223.84a4.14,4.14,0,0,0-.34-1.52,8,8,0,0,0-3.07-3.23c-3.28-2.16-8.78-4-15.69-5.09A97.12,97.12,0,0,0,129,212.88a110.92,110.92,0,0,0-13.16.24c-2.31.19-4.67.45-7.07.83a69.17,69.17,0,0,0-7.26,1.54c-1.22.32-2.43.7-3.64,1.15a30.71,30.71,0,0,0-3.55,1.54,14.42,14.42,0,0,0-3.21,2.23,4.25,4.25,0,0,0,0,6.87,14.44,14.44,0,0,0,3.22,2.22,28.48,28.48,0,0,0,3.55,1.55c1.2.44,2.42.82,3.64,1.15a66.64,66.64,0,0,0,7.26,1.53c2.4.39,4.76.65,7.07.84a110.92,110.92,0,0,0,13.16.24,96.7,96.7,0,0,0,11.42-1.12c6.91-1.11,12.41-2.93,15.7-5.09a8,8,0,0,0,3.06-3.23,4.13,4.13,0,0,0,.34-1.53l0,.4a2.05,2.05,0,0,1-.09.49,3.11,3.11,0,0,1-.22.65,8,8,0,0,1-3.06,3.25c-3.28,2.17-8.78,4-15.7,5.12A94.94,94.94,0,0,1,129,234.88a111,111,0,0,1-13.17-.23c-2.32-.19-4.68-.45-7.08-.83a67.05,67.05,0,0,1-7.28-1.54c-1.22-.32-2.43-.7-3.64-1.15a28.61,28.61,0,0,1-3.56-1.55A14.64,14.64,0,0,1,91,227.34a6.29,6.29,0,0,1-1.23-1.57,3.78,3.78,0,0,1,0-3.86,6.46,6.46,0,0,1,1.24-1.56,14.26,14.26,0,0,1,3.23-2.24,29.28,29.28,0,0,1,3.56-1.55c1.21-.45,2.43-.83,3.65-1.16a68.74,68.74,0,0,1,7.27-1.53c2.4-.38,4.76-.64,7.08-.83a111,111,0,0,1,13.17-.23,94.94,94.94,0,0,1,11.42,1.13c6.92,1.12,12.41,2.95,15.7,5.12a8,8,0,0,1,3.06,3.25,3.11,3.11,0,0,1,.22.65,2.05,2.05,0,0,1,.09.49Z"/><path class="cls-5" d="M67.1,159a1.34,1.34,0,1,1-1.33-1.33A1.33,1.33,0,0,1,67.1,159Z"/><circle class="cls-5" cx="186.55" cy="159.87" r="1.34"/><path class="cls-5" d="M133.41,209.08a1.34,1.34,0,1,1-1.33-1.34A1.33,1.33,0,0,1,133.41,209.08Z"/><path class="cls-5" d="M92.86,174.76a.67.67,0,1,1-.67-.67A.67.67,0,0,1,92.86,174.76Z"/><path class="cls-5" d="M175.9,190.94a.67.67,0,1,1-.67-.67A.67.67,0,0,1,175.9,190.94Z"/><path class="cls-5" d="M123.18,221.83a.65.65,0,0,1-.66.66.66.66,0,0,1-.67-.66.67.67,0,0,1,.67-.67A.66.66,0,0,1,123.18,221.83Z"/><circle class="cls-5" cx="88.33" cy="104.92" r="0.34"/><path class="cls-5" d="M148.54,156.29c-16.22,4.29-31.86,4-48.89,0l-2-31.15a121.33,121.33,0,0,0,50.88-.73Z"/><g class="cls-6"><path class="cls-7" d="M148.54,156.29c-16.22,4.29-31.86,4-48.89,0l-2-31.15a121.33,121.33,0,0,0,50.88-.73Z"/></g><path class="cls-5" d="M146,151.55l-.1,0-.31.13c-.27.11-.66.29-1.19.47a42,42,0,0,1-4.48,1.41,58.63,58.63,0,0,1-15.39,1.76,90.63,90.63,0,0,1-15.42-1.65c-1.95-.37-3.52-.71-4.6-1l-1.25-.29-.32-.09-.1,0H103l.32.06,1.26.26c1.08.23,2.66.55,4.61.9a95.72,95.72,0,0,0,15.39,1.58,60.52,60.52,0,0,0,15.35-1.69c1.92-.48,3.45-1,4.5-1.34.52-.17.92-.33,1.2-.43l.31-.11Z"/><path class="cls-5" d="M122.19,152.82a10.66,10.66,0,0,1-6.24-.21V141.53a15.61,15.61,0,0,1,6.24,0Z"/><path class="cls-5" d="M132.27,152.16a.45.45,0,0,0,0-.08v-.24l0-.93c0-.82,0-2-.07-3.44,0-2.94-.11-7.06-.18-11.83l.09.1a16.76,16.76,0,0,0-6.47,0l.09-.11v.22c.07,6.56.13,12.47.17,16.7l-.06-.08a15.27,15.27,0,0,0,2.72.34,10.88,10.88,0,0,0,2.06-.17,10.69,10.69,0,0,0,1.26-.33l.32-.11.11,0-.1.05-.31.14a9.21,9.21,0,0,1-3.34.58,15.32,15.32,0,0,1-2.75-.31h-.06v-.06c-.06-4.23-.14-10.14-.23-16.69v-.31l.09,0a16.78,16.78,0,0,1,6.55,0l.08,0v.08c0,4.8.07,8.94.09,11.89,0,1.45,0,2.61,0,3.43,0,.38,0,.68,0,.9v.24S132.28,152.16,132.27,152.16Z"/><path class="cls-5" d="M141.87,150.86a12,12,0,0,1-6.24.89V133.44a13.29,13.29,0,0,1,6.24,0Z"/><path class="cls-5" d="M112.28,151.92a2.71,2.71,0,0,1,0-.47c0-.33,0-.75,0-1.28,0-1.12,0-2.66,0-4.5l.06.09a14,14,0,0,0-6-1h0l.1-.11c0,2.29,0,4.43,0,6.25l-.06-.09a11.4,11.4,0,0,0,2.41.69c.74.13,1.39.21,1.93.26l1.25.11a2.72,2.72,0,0,1,.44,0h-.45c-.29,0-.71,0-1.25-.06s-1.2-.1-2-.22a11.31,11.31,0,0,1-2.45-.67l-.06,0v-.06c0-1.82,0-4,0-6.25v-.1h.11a14,14,0,0,1,6.1,1l.06,0v.06c0,1.86,0,3.43-.05,4.56,0,.52,0,.94,0,1.26A3.62,3.62,0,0,1,112.28,151.92Z"/><path class="cls-5" d="M115.22,135.72a7.5,7.5,0,0,1-1.23.07c-.75,0-1.8,0-2.95-.07s-2.19-.18-2.94-.28a6.7,6.7,0,0,1-1.2-.21,7.38,7.38,0,0,1,1.22.06c.75.06,1.79.15,2.94.21s2.18.11,2.94.14A5.72,5.72,0,0,1,115.22,135.72Z"/><path class="cls-5" d="M114.29,137.08a5.75,5.75,0,0,1-1.08,0c-.66,0-1.57-.09-2.58-.16s-1.92-.16-2.57-.23a5,5,0,0,1-1.06-.16,5,5,0,0,1,1.07,0c.66,0,1.57.09,2.58.17s1.91.16,2.57.23A5.34,5.34,0,0,1,114.29,137.08Z"/><path class="cls-5" d="M116.57,138.86s0-.13,0-.38,0-.63,0-1.08c0-1,.11-2.28.18-3.91l.08.08a88.77,88.77,0,0,1-11.55-.64l.12-.1h0v.33l0,.35,0,.7c0,.46,0,.92-.08,1.37,0,.9-.1,1.77-.15,2.6l-.09-.11c3.34.41,6.23.59,8.28.67l2.39.07.63,0h.23l-.21,0-.65,0c-.56,0-1.37,0-2.4,0-2,0-5-.19-8.3-.59h-.09v-.1c0-.83.1-1.7.15-2.6l.08-1.37,0-.7,0-.35v-.33h0s.23-.2.12-.11a97.76,97.76,0,0,0,11.53.7H117v.09c-.11,1.65-.2,3-.27,3.95l-.08,1.06A1.62,1.62,0,0,1,116.57,138.86Z"/><path class="cls-5" d="M118,141.21a5.22,5.22,0,0,1-.8-1.11,4,4,0,0,1-.62-1.24,5.38,5.38,0,0,1,.8,1.12A3.66,3.66,0,0,1,118,141.21Z"/><path class="cls-5" d="M50.23,100.66l5.3,32.07s8.09,15.15,29.6,18.57l-3.47-28.63S61.77,116.52,50.23,100.66Z"/><g class="cls-6"><path class="cls-7" d="M50.23,100.66l5.3,32.07s8.09,15.15,29.6,18.57l-3.47-28.63S61.77,116.52,50.23,100.66Z"/></g><path class="cls-5" d="M82.35,149s0,0-.13,0l-.4-.11-1.52-.46c-.65-.22-1.47-.43-2.37-.8l-1.47-.56a16.4,16.4,0,0,1-1.62-.67c-1.12-.51-2.36-1-3.63-1.75s-2.6-1.47-4-2.35a39.88,39.88,0,0,1-8-6.92,24.33,24.33,0,0,1-2.88-4v0h0c-1-6.25-1.82-11.74-2.43-15.69-.29-2-.53-3.53-.69-4.63-.08-.53-.14-.95-.18-1.24l0-.33a.87.87,0,0,1,0-.11l0,.11.06.32L53.3,111l.76,4.62c.63,3.94,1.5,9.43,2.5,15.67v0a23.59,23.59,0,0,0,2.86,4,40.47,40.47,0,0,0,7.93,6.9c1.37.87,2.67,1.7,4,2.35s2.49,1.25,3.6,1.77c.55.27,1.1.48,1.62.68l1.45.57c.9.38,1.71.61,2.36.83l1.5.5.39.14Z"/><path class="cls-5" d="M80.46,139.7s0,0-.07.07l-.23.18-.89.7-3.38,2.59,0,0,0-.06-4.13-5.71.12,0-3.17,2.25-.1.08,0-.12-4.08-11.08-.58-1.59H64c-.89,1.76-1.76,3.48-2.58,5.12l-.12.22-.08-.23-5.38-15.53H56c-.34,1.43-.61,2.56-.79,3.34l-.22.88-.06.23a.31.31,0,0,1,0,.07s0,0,0-.08l.05-.23.19-.88c.17-.79.42-1.92.73-3.36l0-.2.07.2c1.25,3.56,3.19,9,5.47,15.5h-.19c.82-1.65,1.69-3.36,2.57-5.13l.11-.22L64,127l.59,1.59,4.06,11.08-.15,0,3.18-2.24.07,0,0,.07,4.09,5.75-.09,0,3.41-2.54c.4-.28.7-.51.92-.67l.24-.16Z"/><path class="cls-5" d="M79.72,124.32a2.16,2.16,0,0,1-.45-.1c-.29-.08-.7-.2-1.2-.37a39.46,39.46,0,0,1-3.87-1.52c-1.47-.66-2.77-1.36-3.69-1.89-.45-.27-.82-.49-1.07-.66a1.67,1.67,0,0,1-.37-.27,2.13,2.13,0,0,1,.41.2l1.11.59c.93.5,2.23,1.17,3.7,1.84s2.84,1.19,3.83,1.56l1.18.44A2.31,2.31,0,0,1,79.72,124.32Z"/><path class="cls-5" d="M80.57,125.65a4.16,4.16,0,0,1-1-.18,24.78,24.78,0,0,1-2.44-.73c-.94-.34-1.76-.7-2.35-1a4.63,4.63,0,0,1-.92-.52,5.57,5.57,0,0,1,1,.38c.59.24,1.42.58,2.35.91s1.79.6,2.41.79A6,6,0,0,1,80.57,125.65Z"/><path class="cls-5" d="M72.1,137.52c0,.26-.16.48-.36.48s-.36-.22-.36-.48.16-.49.36-.49S72.1,137.25,72.1,137.52Z"/><ellipse class="cls-5" cx="63.87" cy="127.38" rx="0.36" ry="0.48"/><path class="cls-5" d="M56.29,116.79c0,.27-.16.49-.36.49s-.36-.22-.36-.49.16-.48.36-.48S56.29,116.53,56.29,116.79Z"/><path class="cls-5" d="M190.5,106.37,187.85,139s-7.76,13.93-29.12,14.46l2.64-32.81S180,119.86,190.5,106.37Z"/><path class="cls-5" d="M190.11,104.67c-.7-2.25-2.38-5.47-6.4-6.14L179,142.36s8.91-1.78,9.15-6.66c0-.42,1.81-22.21,2.25-27.6A8.8,8.8,0,0,0,190.11,104.67Z"/><g class="cls-6"><path class="cls-7" d="M190.5,106.37,187.85,139s-7.76,13.93-29.12,14.46l2.64-32.81S180,119.86,190.5,106.37Z"/></g><path class="cls-5" d="M189.87,114.68a19.37,19.37,0,0,0-3.41,10.54,8.79,8.79,0,0,1-.36,3.2,2.34,2.34,0,0,1-2.53,1.55c-1.09-.3-1.58-1.59-2.53-2.19a2.81,2.81,0,0,0-2.87.06,4.76,4.76,0,0,0-1.88,2.29c-.78,1.78-.83,3.8-1.4,5.66s-2,3.74-3.92,3.82c-.71,0-1.42-.18-2.13-.16a4.39,4.39,0,0,0-3.51,2.49,13,13,0,0,0-1.11,4.35s11.39,1.09,24.17-14Z"/><path class="cls-5" d="M171.77,134.45c0,.4-.2.73-.45.73s-.45-.33-.45-.73.2-.74.45-.74S171.77,134,171.77,134.45Z"/><path class="cls-5" d="M177.13,120.9c0,.4-.2.73-.45.73s-.44-.33-.44-.73.2-.73.44-.73S177.13,120.49,177.13,120.9Z"/><path class="cls-5" d="M189.61,116.25a.7.7,0,0,1-.07.19l-.24.52-.94,2L185,126l0,.09-.09-.05-8.06-5.1.16,0-.33.82c-2,4.88-3.82,9.34-5.2,12.74l0,.08-.08,0c-2-1.13-3.65-2-4.79-2.66l-1.31-.7-.35-.17-.13-.05a9.33,9.33,0,0,1,1.84.84c1.15.59,2.8,1.48,4.82,2.59l-.12,0c1.38-3.39,3.18-7.86,5.16-12.75l.33-.82.05-.12.11.07,8,5.12-.14,0c1.43-2.89,2.62-5.32,3.47-7l1-2,.26-.52Z"/></svg>